<svg t="1688371957881" class="icon" viewBox="0 0 1024 1024" version="1.1" xmlns="http://www.w3.org/2000/svg" p-id="12218" width="128" height="128"><path d="M422.648199 431.157895c5.67313 0 8.509695-2.836565 11.346261-5.67313 2.836565-2.836565 5.67313-8.509695 5.67313-11.346261V51.058172c0-2.836565 0-5.67313-2.836565-5.67313h-5.67313L306.34903 170.193906 141.828255 5.67313C138.99169 2.836565 133.31856 0 130.481994 0c-5.67313 0-11.34626 2.836565-14.182825 5.67313L5.67313 116.299169c-2.836565 2.836565-5.67313 8.509695-5.67313 11.34626 0 5.67313 2.836565 11.34626 5.67313 14.182826L170.193906 303.512465l-119.135734 119.135734c-2.836565 2.836565-2.836565 2.836565 0 5.673131 0 2.836565 2.836565 2.836565 5.67313 2.836565h365.916897z m0 156.01108c5.67313 0 8.509695 2.836565 11.346261 5.67313 2.836565 2.836565 5.67313 8.509695 5.67313 11.346261v365.916897c0 2.836565 0 5.67313-2.836565 5.67313h-5.67313L306.34903 850.969529 141.828255 1015.490305c-2.836565 2.836565-8.509695 5.67313-11.346261 5.67313-5.67313 0-8.509695-2.836565-11.34626-5.67313L8.509695 904.864266c-5.67313-2.836565-8.509695-8.509695-8.509695-11.34626s2.836565-8.509695 5.67313-11.346261L170.193906 717.65097l-119.135734-119.135735c-2.836565-2.836565-2.836565-2.836565 0-5.67313 0-2.836565 2.836565-2.836565 5.67313-2.836565l365.916897-2.836565z m175.867036-156.01108c-5.67313 0-8.509695-2.836565-11.34626-5.67313-2.836565-2.836565-5.67313-8.509695-5.67313-11.346261V51.058172c0-2.836565 0-5.67313 2.836565-5.67313h5.67313L714.814404 170.193906 879.33518 5.67313c2.836565-2.836565 8.509695-5.67313 11.34626-5.67313 5.67313 0 8.509695 2.836565 11.346261 5.67313l110.626039 110.626039c5.67313 2.836565 8.509695 8.509695 8.509695 11.34626 0 5.67313-2.836565 8.509695-5.67313 11.346261L850.969529 303.512465l119.135734 119.135734c2.836565 2.836565 2.836565 2.836565 0 5.673131 0 2.836565-2.836565 2.836565-5.67313 2.836565H598.515235z m0 156.01108c-5.67313 0-8.509695 2.836565-11.34626 5.67313-2.836565 2.836565-5.67313 8.509695-5.67313 11.346261v365.916897c0 2.836565 0 5.67313 2.836565 5.67313h5.67313l121.972299-121.972299 164.520776 164.520776c2.836565 2.836565 8.509695 5.67313 11.34626 5.67313 5.67313 0 8.509695-2.836565 11.346261-5.67313l110.626039-110.626039c2.836565-2.836565 5.67313-8.509695 5.67313-11.34626s-2.836565-8.509695-5.67313-11.346261L850.969529 717.65097l119.135734-119.135735c2.836565-2.836565 2.836565-2.836565 0-5.67313 0-2.836565-2.836565-2.836565-5.67313-2.836565l-365.916898-2.836565z" fill="currentColor" p-id="12219"></path></svg>