<?xml version="1.0" encoding="UTF-8"?>
<svg width="18px" height="18px" viewBox="0 0 18 18" version="1.1" xmlns="http://www.w3.org/2000/svg" xmlns:xlink="http://www.w3.org/1999/xlink">
    <!-- Generator: Sketch 52.5 (67469) - http://www.bohemiancoding.com/sketch -->
    <title>换肤_白_按钮</title>
    <desc>Created with Sketch.</desc>
    <defs>
        <polygon id="path-1" points="0 0 17.9965454 0 17.9965454 18 0 18"></polygon>
    </defs>
    <g id="换肤_白_按钮" stroke="none" stroke-width="1" fill="none" fill-rule="evenodd">
        <g id="pifu(1)">
            <mask id="mask-2" fill="white">
                <use xlink:href="#path-1"></use>
            </mask>
            <g id="Clip-2"></g>
            <path d="M13.7348171,1 L12.7034099,1 C12.430502,1 12.1673752,1.12580369 11.9912684,1.35071301 C11.4629239,2.02328874 9.95164486,2.45865661 8.99954339,2.45865661 C8.04746595,2.45865661 6.53618692,2.02328874 6.00784246,1.35071301 C5.82986115,1.12559871 5.56851268,1 5.29570093,1 L4.2623231,1 C4.0108518,1 3.7706996,1.10720217 3.59271829,1.30136517 L0.16553271,5.01713467 C-0.0551775701,5.25634103 -0.0551775701,5.6422842 0.16553271,5.88149056 L2.25538318,8.14892908 C2.47606943,8.3883148 2.8321522,8.3883148 3.05264619,8.14892908 L3.12231509,8.07475359 C3.1977757,7.99419823 3.32545794,8.04992594 3.32545794,8.1655321 L4.32545794,16.0695908 C4.32545794,16.5832336 4.70864887,17 5.18272897,17 L12.8138585,17 C13.2879146,17 13.6711055,16.5832336 13.6711055,16.0695908 L14.6711055,8.16353358 C14.6711055,8.04782494 14.7987877,7.9900731 14.8743685,8.07265259 L14.9439172,8.14710993 C15.1646275,8.38631629 15.5206862,8.38631629 15.7412043,8.14710993 L17.8310547,5.8796714 C18.051741,5.64046504 18.051741,5.254445 17.8310547,5.01523864 L14.4044219,1.29926417 C14.2264406,1.10738152 13.98451,1 13.7348171,1 Z" id="Fill-1" fill="currentColor" mask="url(#mask-2)"></path>
        </g>
    </g>
</svg>